<svg width="157" height="83" viewBox="0 0 157 83" fill="none" xmlns="http://www.w3.org/2000/svg">
<g filter="url(#filter0_f_2287_17137)">
<rect x="57.2318" y="4.72168" width="108.005" height="108.005" rx="16.9103" transform="rotate(28.7479 57.2318 4.72168)" fill="#FF4500"/>
<path d="M110.169 95.3576C112.265 91.5366 110.865 86.7344 107.044 84.6383C105.162 83.6055 103.105 83.414 101.219 83.964C98.3648 78.0039 93.0455 72.2043 85.9985 67.9783L97.2658 54.9244L106.326 62.704C105.009 65.3674 106.014 68.6565 108.672 70.1146C111.385 71.6031 114.816 70.6032 116.304 67.8897C117.793 65.1763 116.793 61.7462 114.079 60.2576C112.141 59.1944 109.872 59.3906 108.186 60.6266L98.0595 51.9019C97.7576 51.6642 97.3949 51.5373 97.0269 51.5516C96.6589 51.5658 96.3409 51.7516 96.0479 52.0231L83.5066 66.6113C76.0201 62.7926 68.2456 61.3373 61.5694 62.2135C60.9891 60.3823 59.6977 58.6653 57.8703 57.6629C54.0494 55.5668 49.2471 56.9667 47.1511 60.7877C45.6018 63.6118 45.9568 66.9043 47.7858 69.3485C47.3106 69.9522 46.8603 70.6418 46.4654 71.3616C40.6328 81.9939 48.2731 97.3514 63.557 105.736C78.8408 114.12 95.8982 112.311 101.731 101.679C102.126 100.959 102.435 100.264 102.689 99.5386C105.567 99.6766 108.62 98.1817 110.169 95.3576ZM60.1189 74.313C61.6074 71.5996 65.0376 70.5997 67.751 72.0882C70.4644 73.5767 71.4644 77.0069 69.9758 79.7203C68.4873 82.4337 65.0572 83.4336 62.3437 81.9451C59.6303 80.4566 58.6304 77.0265 60.1189 74.313ZM80.502 102.424C75.2711 103.949 68.7259 100.647 66.8431 99.6139C64.9603 98.5811 58.6332 94.75 57.1333 89.6048C56.9083 88.833 57.364 88.0023 58.1358 87.7773C58.9076 87.5524 59.7382 88.008 59.9632 88.7798C60.9131 92.0385 65.0287 95.3047 68.2959 97.097C71.5631 98.8893 76.4738 100.575 79.7879 99.6551C80.5596 99.4301 81.3903 99.8857 81.6153 100.658C81.6991 101.424 81.2738 102.199 80.502 102.424ZM84.0512 93.8532C81.3378 92.3647 80.3378 88.9346 81.8263 86.2211C83.3148 83.5077 86.745 82.5078 89.4584 83.9963C92.1719 85.4848 93.1718 88.9149 91.6833 91.6284C90.1948 94.3418 86.7646 95.3417 84.0512 93.8532Z" fill="white"/>
</g>
<defs>
<filter id="filter0_f_2287_17137" x="0.841384" y="0.277236" width="155.528" height="155.528" filterUnits="userSpaceOnUse" color-interpolation-filters="sRGB">
<feFlood flood-opacity="0" result="BackgroundImageFix"/>
<feBlend mode="normal" in="SourceGraphic" in2="BackgroundImageFix" result="shape"/>
<feGaussianBlur stdDeviation="2.22222" result="effect1_foregroundBlur_2287_17137"/>
</filter>
</defs>
</svg>
