<svg width="128" height="133" viewBox="0 0 128 133" fill="none" xmlns="http://www.w3.org/2000/svg">
<path d="M181.312 131.163C181.312 131.163 179.783 104.519 160.702 88.6669C141.307 72.5542 104.376 67.1879 94.2932 90.249C88.8692 102.654 90.5899 114.1 102.369 120.827C114.109 127.53 126.232 123.96 135.169 113.849C154.302 92.2006 133.703 55.1638 108.663 40.6454C83.5732 26.0979 40.4318 26.4111 31.3127 53.8871C27.0476 66.7379 29.5544 79.2425 41.4941 85.6802C53.1976 91.9905 65.6682 88.7891 74.2938 78.7023C92.6967 57.1821 75.3205 18.352 49.5423 6.51191C32.7107 -1.219 17.5645 0.0690714 2.31246 10.5285" stroke="white" stroke-width="3" stroke-linecap="round"/>
</svg>
