<svg width="66" height="67" viewBox="0 0 66 67" fill="none" xmlns="http://www.w3.org/2000/svg">
<path d="M14.2963 58.9032C10.9895 58.1882 9.27293 57.3276 8.14825 56.6543C6.65782 55.7634 5.64537 54.8316 4.65012 53.4334C3.65487 52.0352 3.10609 50.7724 2.75798 49.0725C2.49192 47.789 2.24342 45.8849 2.65531 42.5268C3.09783 38.8964 3.24727 37.8099 4.79034 28.6835C6.33341 19.5571 6.55251 18.4841 7.32368 14.9058C8.03868 11.599 8.9021 9.88634 9.57256 8.75777C10.4635 7.26734 11.3969 6.25517 12.7938 5.25797C14.1917 4.26439 15.4548 3.71394 17.1564 3.36611C18.4399 3.10005 20.3439 2.85155 23.702 3.26344C27.3338 3.70791 28.422 3.85763 37.5451 5.40014C46.6715 6.94321 47.7445 7.16231 51.3227 7.93348C54.6296 8.64848 56.3422 9.5119 57.4708 10.1824C58.9618 11.07 59.9737 12.0051 60.9689 13.4033C61.9642 14.8015 62.5094 16.0654 62.8608 17.7659C63.1269 19.0494 63.3754 20.9534 62.9635 24.3115C62.5187 27.945 62.3696 29.0298 60.8265 38.1562C59.284 47.2793 59.0676 48.3562 58.2931 51.9339C57.5781 55.2408 56.7142 56.9567 56.0443 58.082C55.1533 59.5724 54.2215 60.5849 52.8236 61.5784C51.4257 62.572 50.1615 63.1189 48.461 63.4703C47.1775 63.7364 45.2735 63.9849 41.9154 63.573C38.2852 63.1288 37.1971 62.9791 28.0707 61.436C18.9476 59.8935 17.8704 59.6788 14.2963 58.9032Z" fill="url(#paint0_radial_2287_17140)"/>
<path d="M26.4855 32.1435C27.0607 28.7415 30.2842 26.4491 33.6862 27.0243C37.0882 27.5995 39.3803 30.8244 38.8051 34.2264C38.2299 37.6284 35.005 39.9206 31.603 39.3454C28.201 38.7702 25.9103 35.5454 26.4855 32.1435ZM23.1552 31.5804C22.2691 36.8214 25.7992 41.788 31.0402 42.6742C36.2811 43.5603 41.2478 40.0302 42.1339 34.7892C43.0201 29.5483 39.49 24.5816 34.249 23.6955C29.008 22.8093 24.0416 26.3391 23.1554 31.5804M41.9602 24.6122C41.8858 25.0508 41.9432 25.5016 42.1251 25.9075C42.3069 26.3135 42.6051 26.6564 42.9818 26.8929C43.3586 27.1294 43.797 27.2489 44.2416 27.2363C44.6863 27.2236 45.1172 27.0794 45.4799 26.8218C45.8426 26.5643 46.1207 26.2049 46.2792 25.7893C46.4376 25.3737 46.4693 24.9204 46.3701 24.4867C46.271 24.0531 46.0455 23.6586 45.7221 23.3531C45.3987 23.0477 44.9921 22.8449 44.5535 22.7706L44.5526 22.7705C43.9646 22.6713 43.3614 22.8096 42.8753 23.1549C42.3892 23.5003 42.0601 24.0244 41.9602 24.6122ZM22.6353 46.965C20.8474 46.5784 19.9188 46.1127 19.3109 45.7491C18.5049 45.2673 17.9569 44.7632 17.419 44.0074C16.881 43.2516 16.5843 42.5688 16.3958 41.6495C16.2521 40.9561 16.1176 39.9257 16.3403 38.1101C16.5801 36.147 16.6611 35.5588 17.4955 30.6238C18.3299 25.6887 18.448 25.1084 18.8657 23.1737C19.2524 21.3859 19.72 20.4593 20.0817 19.8494C20.5635 19.0434 21.0676 18.4954 21.8234 17.9574C22.5792 17.4195 23.262 17.1228 24.1828 16.9345C24.8762 16.7908 25.9065 16.6563 27.7221 16.879C29.6852 17.1188 30.2734 17.1999 35.2063 18.0339C40.1391 18.8679 40.7217 18.986 42.6562 19.4044C44.4441 19.7911 45.3707 20.2587 45.9806 20.6203C46.7869 21.1006 47.3346 21.6063 47.8725 22.362C48.4105 23.1178 48.7054 23.8018 48.8955 24.7214C49.0392 25.4148 49.1737 26.4452 48.9509 28.2608C48.7109 30.2255 48.6301 30.812 47.7957 35.7471C46.9613 40.6822 46.8447 41.2627 46.4255 43.1972C46.0388 44.985 45.5717 45.9133 45.2096 46.5215C44.7278 47.3275 44.2236 47.8755 43.4681 48.412C42.7125 48.9485 42.0283 49.2449 41.1087 49.4349C40.4153 49.5786 39.385 49.7131 37.5694 49.4904C35.6063 49.2506 35.0181 49.1696 30.083 48.3351C25.1479 47.5007 24.5674 47.3842 22.6352 46.9653M28.1312 13.5284C26.1488 13.2853 24.7517 13.37 23.5005 13.6283C22.2056 13.8946 21.0686 14.3534 19.8664 15.2064C18.6642 16.0594 17.8588 16.9828 17.1813 18.1196C16.5259 19.2171 15.9868 20.508 15.5645 22.4602C15.1403 24.4152 15.013 25.0416 14.1644 30.0602C13.3159 35.0789 13.2302 35.7123 12.9881 37.6982C12.7451 39.6808 12.8299 41.077 13.0881 42.3289C13.3544 43.6238 13.8113 44.7627 14.6662 45.963C15.521 47.1633 16.4428 47.9693 17.5794 48.6481C18.6784 49.3038 19.9678 49.8426 21.9199 50.2649C23.8763 50.6878 24.5014 50.8164 29.52 51.665C34.5386 52.5135 35.1721 52.5992 37.1579 52.8413C39.1406 53.0843 40.5367 52.9995 41.7887 52.7413C43.0838 52.4737 44.2206 52.0162 45.4228 51.1632C46.6249 50.3102 47.4293 49.3851 48.1078 48.25C48.7633 47.1525 49.3039 45.8619 49.7246 43.9095C50.1476 41.9527 50.2747 41.3278 51.1233 36.3091C51.9718 31.2905 52.0575 30.657 52.301 28.6715C52.5441 26.6888 52.4594 25.2919 52.2011 24.0407C51.9334 22.7456 51.476 21.6088 50.623 20.4066C49.77 19.2045 48.8451 18.3988 47.7112 17.7218C46.6123 17.0661 45.3217 16.5255 43.3707 16.105C41.4152 15.6818 40.7893 15.5534 35.7714 14.705C30.7535 13.8566 30.1188 13.7708 28.132 13.5285" fill="white"/>
<defs>
<radialGradient id="paint0_radial_2287_17140" cx="0" cy="0" r="1" gradientUnits="userSpaceOnUse" gradientTransform="translate(3.88771 56.0846) rotate(9.59665) scale(72.1545)">
<stop offset="0.09" stop-color="#FA8F21"/>
<stop offset="0.78" stop-color="#D82D7E"/>
</radialGradient>
</defs>
</svg>
