<svg width="39" height="39" viewBox="0 0 39 39" fill="none" xmlns="http://www.w3.org/2000/svg">
<rect x="7.53058" y="0.87793" width="31.3039" height="31.3039" rx="6.34514" transform="rotate(12.4739 7.53058 0.87793)" fill="black"/>
<path d="M23.2963 18.1828C24.316 19.3205 25.6877 20.1605 27.2914 20.5153L27.9765 17.4183C27.673 17.3512 27.3773 17.2525 27.0943 17.1237L26.555 19.5615C24.9515 19.2067 23.58 18.3667 22.5599 17.229L21.1618 23.5491C20.4624 26.7107 17.3416 28.7086 14.1914 28.0117C13.016 27.7517 12.0023 27.1534 11.2301 26.341C12.0308 27.633 13.3294 28.6119 14.9275 28.9655C18.0779 29.6624 21.1989 27.6645 21.8983 24.5028L23.2964 18.1828L23.2963 18.1828V18.1828ZM25.1016 15.3048C24.6324 14.4886 24.4199 13.521 24.5465 12.5312L24.6346 12.1329L23.7788 11.9435C23.7214 13.2244 24.2231 14.4406 25.1016 15.3048ZM13.7593 24.3557C13.514 23.8237 13.4502 23.2252 13.5777 22.6526C13.8976 21.2066 15.3251 20.2926 16.7663 20.6114C17.0349 20.6708 17.2927 20.7711 17.5306 20.9092L18.2311 17.743C17.941 17.6357 17.643 17.5514 17.3398 17.4911L16.7947 19.9555C16.5565 19.8173 16.2986 19.7169 16.0299 19.6577C14.5887 19.3389 13.1613 20.2528 12.8414 21.699C12.6152 22.7216 13.0032 23.736 13.7593 24.3557Z" fill="#FF004F"/>
<path d="M22.5599 17.2302C23.58 18.3679 24.9515 19.2079 26.555 19.5626L27.0943 17.1249C26.2415 16.7355 25.553 16.0908 25.1016 15.306C24.2231 14.4418 23.7214 13.2256 23.7788 11.9448L21.5306 11.4474L18.7942 23.8172C18.4701 25.2582 17.0457 26.1678 15.6076 25.8497C14.7602 25.6623 14.097 25.0903 13.7591 24.3569C13.0031 23.7372 12.6151 22.7227 12.8413 21.7003C13.1612 20.2542 14.5886 19.3402 16.0298 19.659C16.3059 19.72 16.5625 19.8221 16.7945 19.9568L17.3397 17.4924C14.2306 16.8719 11.1802 18.8591 10.4898 21.9802C10.1451 23.5382 10.4525 25.0878 11.2302 26.3423C12.0024 27.1547 13.016 27.753 14.1914 28.013C17.3417 28.7099 20.4625 26.7119 21.1619 23.5504L22.56 17.2302L22.5599 17.2302Z" fill="white"/>
<path d="M27.0943 17.1235L27.2401 16.4643C26.4327 16.287 25.6916 15.8851 25.1016 15.3046C25.5605 16.1048 26.2572 16.7406 27.0943 17.1235ZM23.7788 11.9434C23.7843 11.821 23.7947 11.6989 23.8101 11.5773L23.8983 11.179L20.7942 10.4923L18.0577 22.8622C17.7338 24.303 16.3094 25.2127 14.8712 24.8946C14.449 24.8012 14.0726 24.6124 13.7591 24.3555C14.097 25.0889 14.7602 25.6608 15.6076 25.8483C17.0456 26.1664 18.4702 25.2569 18.7942 23.8159L21.5306 11.4461L23.7788 11.9434ZM17.3398 17.491L17.495 16.7893C17.2435 16.6963 16.986 16.6206 16.7242 16.5628C13.5736 15.8658 10.4528 17.8638 9.75343 21.0252C9.31498 23.0072 9.93229 24.976 11.2302 26.3409C10.4525 25.0864 10.1452 23.5368 10.4898 21.9788C11.1803 18.8577 14.2306 16.8705 17.3398 17.491Z" fill="#00F2EA"/>
</svg>
